# xmcd CD database file
#
# Track frame offsets:
#	150
#	13580
#	33826
#	48370
#	63945
#	78251
#	98137
#	124444
#	154382
#	173147
#
# Disc length: 2572 seconds
#
# Revision: 2
# Processed by: cddbd v1.5PL3 Copyright (c) Steve Scherf et al.
# Submitted via: CDex 1.51
#
DISCID=780a0a0a
DTITLE=Sojiro - Ayumi
DYEAR=1999
DGENRE=New Age
TTITLE0=Japanese
TTITLE1=Japanese
TTITLE2=Japanese
TTITLE3=Japanese
TTITLE4=Japanese
TTITLE5=Japanese
TTITLE6=Japanese
TTITLE7=Japanese
TTITLE8=Japanese
TTITLE9=Japanese
EXTD=YEAR: 1999
EXTT0=
EXTT1=
EXTT2=
EXTT3=
EXTT4=
EXTT5=
EXTT6=
EXTT7=
EXTT8=
EXTT9=
PLAYORDER=
